<svg width="700" height="186" viewBox="0 0 700 186" fill="none" xmlns="http://www.w3.org/2000/svg">
<g id="Direction=Horizontal, Color=Original">
<g id="Horizontal Logomark">
<g id="Icon">
<path id="Vector" d="M100.114 109.493C95.1285 109.493 91.0942 105.459 91.0942 100.473C91.0942 95.4883 95.1285 91.4539 100.114 91.4539C105.099 91.4539 109.133 95.4883 109.133 100.473C109.133 105.459 105.099 109.493 100.114 109.493ZM263.158 127.763C263.158 96.0022 237.487 70.1258 205.778 69.7918C206.009 65.9887 206.086 61.4918 205.778 56.7893C203.748 24.4117 179.079 6.10352e-05 148.423 6.10352e-05C117.767 6.10352e-05 91.0685 25.7223 91.0685 57.3547V76.6013C91.0685 81.5865 95.1028 85.6208 100.088 85.6208C105.073 85.6208 109.107 81.5865 109.107 76.6013V57.3547C109.107 35.6668 126.735 18.039 148.423 18.039C170.111 18.039 186.325 35.1786 187.739 57.92C188.381 68.0701 186.814 77.3722 186.814 77.4493L184.938 88.3703L196.013 88.0106C200.69 87.8564 202.54 87.8307 205.161 87.8307C227.183 87.8307 245.068 105.741 245.068 127.737C245.068 149.734 227.157 167.644 205.161 167.644H109.107V124.294C109.107 119.309 105.073 115.275 100.088 115.275C95.1028 115.275 91.0685 119.309 91.0685 124.294V185.683H205.161C237.127 185.683 263.132 159.678 263.132 127.712L263.158 127.763Z" fill="#161650"/>
<path id="Vector_2" d="M129.151 137.887C124.166 137.887 120.131 133.853 120.131 128.868C120.131 123.883 124.166 119.848 129.151 119.848C134.136 119.848 138.17 123.883 138.17 128.868C138.17 133.853 134.136 137.887 129.151 137.887ZM129.151 143.618C124.166 143.618 120.131 147.652 120.131 152.637V167.695H138.196V152.637C138.196 147.652 134.161 143.618 129.176 143.618H129.151ZM91.0941 167.695H47.2045C31.1442 167.695 18.0646 154.616 18.0646 138.555C18.0646 122.495 31.1442 109.416 47.2045 109.416C49.2345 109.416 50.6735 109.416 54.271 109.544L65.2948 109.878L63.4447 98.9828C63.4447 98.9828 62.2626 91.8649 62.7509 84.2073C63.8044 67.5303 76.1387 54.9647 91.4539 54.9647C106.769 54.9647 120.131 67.8386 120.131 83.642V105.227C120.131 110.212 124.166 114.247 129.151 114.247C134.136 114.247 138.17 110.212 138.17 105.227V83.642C138.17 57.8684 117.202 36.9257 91.4539 36.9257C65.706 36.9257 46.4079 56.7634 44.7376 83.0767C44.5577 86.0318 44.5577 88.8584 44.6605 91.428C19.812 92.7128 0 113.347 0 138.53C0 163.712 21.1739 185.734 47.2045 185.734H91.0941V167.67V167.695Z" fill="#006CFF"/>
</g>
<g id="Logotype">
<path id="Vector_3" d="M338.417 68.8968C342.663 69.4431 347.431 73.5904 347.431 80.9165C347.431 89.3104 342.266 95.2457 330.768 95.2457H305.263V43.5909H330.718C340.056 43.5909 345.991 49.3027 345.991 57.9202C345.991 64.4763 341.521 68.0276 338.441 68.5491V68.8471L338.417 68.8968ZM315.743 65.1965H328.856C333.028 65.1965 335.784 62.5641 335.784 58.5658C335.784 54.9401 332.928 52.556 329.551 52.556H315.743V65.1965ZM329.625 86.3303C334.319 86.3303 336.728 83.7724 336.728 79.9231C336.728 76.0738 333.947 73.5159 330.023 73.5159H315.768V86.3055H329.65L329.625 86.3303ZM391.214 95.2705H381.032V91.7938C378.027 94.7987 374.004 96.4129 368.938 96.4129C359.675 96.4129 353.516 89.7822 353.516 80.2211V56.7778H363.698V78.0606C363.698 83.4495 366.777 87.0753 371.496 87.0753C377.282 87.0753 381.057 83.226 381.057 73.8139V56.7778H391.239V95.2457L391.214 95.2705ZM401.247 95.2705V39.7416H411.429V95.2457H401.247V95.2705ZM458.142 95.2705H447.96V91.7938C444.955 94.7987 440.932 96.4129 435.865 96.4129C426.602 96.4129 420.443 89.7822 420.443 80.2211V56.7778H430.625V78.0606C430.625 83.4495 433.705 87.0753 438.423 87.0753C444.21 87.0753 447.984 83.226 447.984 73.8139V56.7778H458.166V95.2457L458.142 95.2705ZM496.138 93.5818C492.139 95.7424 489.358 96.4377 486.105 96.4377C477.015 96.4377 471.006 91.6696 471.006 81.0903V65.122H462.761V56.8026H471.006V45.1306H481.187V56.7778H493.754V65.0972H481.187V80.2956C481.187 84.9147 483.423 86.9263 486.825 86.9263C488.588 86.9263 491.22 86.1564 493.232 85.0886L496.162 93.557L496.138 93.5818Z" fill="#161650"/>
<path id="Vector_4" d="M337.026 146.745C342.042 147.291 346.736 151.612 346.736 158.839C346.736 167.158 341.347 173.019 330.395 173.019H305.263V121.364H329.849C339.336 121.364 345.196 127.002 345.196 135.321C345.196 141.877 340.801 145.801 337.026 146.422V146.72V146.745ZM313.508 143.74H328.93C333.872 143.74 337.175 140.586 337.175 135.793C337.175 131.397 333.773 128.467 329.005 128.467H313.508V143.74ZM329.551 165.941C335.089 165.941 338.268 162.787 338.268 158.069C338.268 153.35 334.791 150.37 329.774 150.37H313.508V165.941H329.551ZM365.386 123.301C365.386 126.157 363.226 128.243 360.295 128.243C357.365 128.243 355.13 126.157 355.13 123.301C355.13 120.594 357.291 118.285 360.295 118.285C363.3 118.285 365.386 120.594 365.386 123.301ZM356.297 173.019V134.775H364.319V173.019H356.297ZM376.264 173.019V117.515H384.285V173.019H376.264ZM405.394 123.301C405.394 126.157 403.233 128.243 400.303 128.243C397.373 128.243 395.138 126.157 395.138 123.301C395.138 120.594 397.298 118.285 400.303 118.285C403.308 118.285 405.394 120.594 405.394 123.301ZM396.305 173.019V134.775H404.326V173.019H396.305ZM433.854 173.863L429.16 185.734H420.592L427.521 174.012C420.046 173.392 413.962 169.766 413.018 162.763L421.039 161.074C421.586 165.618 425.584 167.556 430.601 167.556C435.22 167.556 438.15 165.469 438.15 162.465C438.15 160.155 436.536 158.69 432.985 157.92L424.665 156.231C418.035 154.766 414.26 151.215 414.26 145.826C414.26 138.723 420.195 133.732 429.359 133.732C438.523 133.732 444.085 138.351 445.476 144.758L437.852 146.372C437.231 142.672 434.077 140.139 429.135 140.139C424.193 140.139 422.356 142.448 422.356 145.155C422.356 147.316 423.597 148.706 426.975 149.476L436.064 151.488C442.223 152.804 446.023 156.43 446.023 161.819C446.023 168.673 441.23 172.845 433.829 173.913L433.854 173.863ZM464.077 123.276C464.077 126.132 461.916 128.218 458.986 128.218C456.055 128.218 453.82 126.132 453.82 123.276C453.82 120.57 455.981 118.26 458.986 118.26C461.991 118.26 464.077 120.57 464.077 123.276ZM454.988 172.994V134.75H463.009V172.994H454.988ZM536.716 148.632V172.994H528.769V150.246C528.769 144.609 525.069 141.082 520.127 141.082C513.869 141.082 509.796 145.478 509.796 154.046V173.019H501.775V150.271C501.775 144.634 498.075 141.107 493.133 141.107C486.974 141.107 482.951 145.503 482.951 154.071V173.044H474.929V134.799H482.951V139.121C485.732 135.718 489.73 133.732 495.219 133.732C500.707 133.732 505.475 136.265 507.934 140.735C511.013 136.414 515.881 133.732 522.188 133.732C530.135 133.732 536.692 139.667 536.692 148.682L536.716 148.632ZM575.408 158.665L582.808 160.602C580.722 168.847 573.024 174.087 564.158 174.087C553.206 174.087 543.968 165.991 543.968 153.897C543.968 141.803 553.206 133.707 564.158 133.707C572.8 133.707 580.424 138.947 582.808 147.117L575.11 149.352C573.645 143.715 569.249 141.107 564.158 141.107C557.055 141.107 551.815 146.347 551.815 153.897C551.815 161.446 557.055 166.686 564.158 166.686C569.249 166.686 573.57 164.228 575.408 158.665ZM600.689 123.276C600.689 126.132 598.528 128.218 595.598 128.218C592.667 128.218 590.432 126.132 590.432 123.276C590.432 120.57 592.593 118.26 595.598 118.26C598.603 118.26 600.689 120.57 600.689 123.276ZM591.6 172.994V134.75H599.621V172.994H591.6ZM611.566 172.994V117.49H619.588V172.994H611.566ZM666.623 155.809H635.63C636.4 162.912 641.566 167.133 647.203 167.133C651.45 167.133 655.771 165.892 658.453 160.503L665.63 162.042C662.476 170.064 655.671 174.062 647.203 174.062C636.798 174.062 627.708 166.041 627.708 153.946C627.708 141.852 636.723 133.682 647.526 133.682C658.329 133.682 666.251 141.554 666.648 153.028V155.809H666.623ZM635.854 150.097H658.378C657.137 143.864 652.741 140.76 647.501 140.76C642.261 140.76 637.096 143.914 635.854 150.097ZM700 134.601L699.454 142.299C698.833 142.225 697.914 142.225 697.219 142.225C687.509 142.225 682.716 149.004 682.716 159.484V172.969H674.694V134.725H682.716V142.895C685.795 137.804 690.663 134.253 697.293 134.253C698.212 134.253 698.982 134.253 700 134.551V134.601Z" fill="#161650"/>
</g>
</g>
</g>
</svg>
